<svg width="693" height="160" viewBox="0 0 693 160" fill="none" xmlns="http://www.w3.org/2000/svg">
<g clip-path="url(#clip0_2_2)">
<rect width="693" height="160" fill="white"/>
<g clip-path="url(#clip1_2_2)">
<path fill-rule="evenodd" clip-rule="evenodd" d="M73.7883 80.4056L74.0051 80.152L73.9819 80.1152L79.3098 73.7845C69.5251 65.4617 59.9572 56.9318 52.6119 46.917C48.0331 40.6599 44.3005 33.52 44.7709 26.1013C45.2549 18.6845 51.065 11.1342 59.45 10.0094C66.8553 9.01815 73.8134 12.9695 79.9391 16.7505L79.9758 16.7737L80.0126 16.7505C86.1382 12.9695 93.108 9.01815 100.502 10.0094C108.887 11.1322 114.708 18.6826 115.181 26.1013C115.603 32.5887 112.788 38.871 109.02 44.5241C109.684 44.0652 110.362 43.6064 111.038 43.1592C114.71 40.7663 118.611 38.7006 122.66 37.2758C124.17 33.096 125.016 28.7594 124.834 24.386C124.447 14.6964 117.984 3.96911 106.881 0.914128C101.929 -0.45074 96.4786 -0.245525 91.5979 1.25293C89.2049 1.99053 86.934 3.02822 84.9166 4.38147C83.0716 5.69988 81.5498 6.94278 79.9642 8.40445C78.3631 6.99505 76.731 5.62437 74.9983 4.38147C72.9809 3.02822 70.71 1.9886 68.317 1.25293C63.4363 -0.245525 57.9882 -0.439124 53.0339 0.914128C41.9191 3.95943 35.4682 14.6983 35.081 24.386C34.7422 32.9024 38.2348 41.2387 43.0556 48.6322C50.7513 60.3991 62.6154 70.8728 73.7902 80.4036L73.7883 80.4056Z" fill="#36AB5C"/>
<path fill-rule="evenodd" clip-rule="evenodd" d="M86.0976 79.3911C85.9156 79.5963 85.7355 79.8132 85.5651 80.0203C85.5651 80.0203 85.4316 80.1655 85.4451 80.1771C83.7414 82.2061 81.9893 84.2969 80.516 86.0606C90.3626 94.4318 100.002 102.999 107.384 113.085C111.963 119.342 115.696 126.482 115.225 133.901C114.755 141.319 108.92 148.868 100.546 149.993C93.1409 150.984 86.1827 147.032 80.0571 143.251L80.0203 143.228L79.9719 143.251C73.8463 147.032 66.8882 150.984 59.4828 149.993C51.0979 148.87 45.2762 141.319 44.7922 133.901C44.3566 127.208 47.3652 120.732 51.3166 114.934C50.3389 115.635 49.3593 116.31 48.3564 116.963C44.8657 119.234 41.1795 121.203 37.35 122.629C35.8167 126.846 34.9571 131.206 35.1391 135.616C35.5263 145.306 41.9888 156.033 53.092 159.088C58.0444 160.453 63.4943 160.247 68.3751 158.749C70.768 158.011 73.039 156.974 75.0563 155.62C76.8859 154.308 78.3573 153.028 80.0087 151.597C81.5963 153.017 83.2342 154.374 84.9611 155.62C86.9785 156.974 89.2494 158.013 91.6424 158.749C96.5231 160.247 101.971 160.441 106.925 159.088C118.029 156.043 124.491 145.304 124.878 135.616C125.217 127.1 121.725 118.763 116.904 111.37C109.245 99.6144 97.2724 88.9239 86.0976 79.3931V79.3911Z" fill="#36AB5C"/>
<path fill-rule="evenodd" clip-rule="evenodd" d="M155.623 84.959C154.31 83.1295 153.03 81.6582 151.6 80.0068C153.019 78.4193 154.376 76.7814 155.623 75.0545C156.976 73.0372 158.016 70.7663 158.751 68.3735C160.25 63.4929 160.443 58.045 159.09 53.0908C156.045 41.988 145.305 35.5256 135.618 35.1384C132.888 35.03 130.17 35.3204 127.5 35.9109C121.75 37.1441 116.191 39.8371 111.082 43.1592C99.9441 50.4075 90.6531 60.5192 81.6176 71.0413C79.0775 74.0653 76.5258 77.0815 73.9954 80.1133L74.0186 80.15C65.5368 90.1533 56.8634 99.9629 46.6314 107.451C41.6558 110.617 36.5969 113.794 31.6388 114.845C29.7511 115.246 27.7512 115.331 26.1056 115.232C18.6886 114.748 11.138 108.927 10.0132 100.542C9.02195 93.1366 12.9734 86.1787 16.7545 80.0533L16.7777 80.0049L16.7545 79.9681C12.9734 73.8426 9.02195 66.8731 10.0132 59.4796C11.1361 51.0948 18.6867 45.2733 26.1056 44.7893C32.7016 44.3673 39.0809 47.2654 44.8077 51.1432C44.2269 50.3224 43.648 49.488 43.104 48.6419C40.773 45.0662 38.7556 41.26 37.3288 37.3339C33.1372 35.8122 28.787 34.9661 24.3902 35.1346C14.7004 35.5218 3.97276 41.9841 0.917695 53.0869C-0.447212 58.0392 -0.241992 63.489 1.2565 68.3696C1.99413 70.7625 3.03185 73.0334 4.38514 75.0507C5.70358 76.8957 6.96201 78.3399 8.40823 80.0029C6.98911 81.5924 5.62614 83.2263 4.38514 84.9552C3.03185 86.9725 1.9922 89.2434 1.2565 91.6362C-0.241992 96.5168 -0.435596 101.965 0.917695 106.919C3.96308 118.022 14.7023 124.484 24.3902 124.871C27.0639 124.96 29.7453 124.709 32.2912 124.145C33.9833 123.772 35.6928 123.338 37.3288 122.684C40.0179 121.607 42.7477 120.26 44.9025 119.071C47.3536 117.666 49.2044 116.473 51.2934 114.951C61.7228 107.362 72.6847 95.2681 80.5179 86.1032C82.3281 83.8458 84.4171 81.4007 86.0995 79.4473C94.4477 69.626 103.001 60.0216 113.065 52.6533C117.547 49.3679 122.487 46.5278 127.659 45.3566C129.949 44.9423 131.757 44.8029 133.881 44.8242C141.298 45.3082 148.848 51.1297 149.973 59.5144C150.965 66.9195 147.001 73.8775 143.232 80.0029L143.209 80.0397L143.232 80.0881C147.013 86.2135 150.965 93.1715 149.973 100.577C148.85 108.961 141.3 114.783 133.881 115.267C127.285 115.689 120.906 112.791 115.179 108.913C115.771 109.734 116.338 110.568 116.883 111.414C119.213 114.99 121.231 118.796 122.658 122.722C126.849 124.244 131.2 125.09 135.596 124.922C145.286 124.534 156.014 118.072 159.069 106.969C160.434 102.017 160.228 96.5672 158.73 91.6866C158.018 89.2453 156.978 86.9744 155.625 84.9571L155.623 84.959Z" fill="#36AB5C"/>
</g>
<path d="M241.309 40.99C243.287 40.99 245.007 41.549 246.469 42.667C248.017 43.785 249.049 45.333 249.565 47.311L273.946 130H249.178L233.569 68.596C233.225 67.134 232.924 65.586 232.666 63.952C232.408 62.232 232.15 60.641 231.892 59.179H228.409C228.237 60.641 227.979 62.232 227.635 63.952C227.377 65.586 227.076 67.134 226.732 68.596L211.123 130H186.355L210.736 47.311C211.252 45.333 212.241 43.785 213.703 42.667C215.251 41.549 217.014 40.99 218.992 40.99H241.309ZM253.564 91.429V108.844H206.737V91.429H253.564ZM305.802 40.99V130H281.55V40.99H305.802ZM333.408 40.99V57.244H304.77V40.99H333.408ZM356.241 40.99V130H331.989V40.99H356.241ZM408.748 39.7C417.692 39.7 424.658 40.603 429.646 42.409C434.72 44.129 438.332 47.139 440.482 51.439C442.632 55.739 443.707 61.759 443.707 69.499C443.707 77.239 442.675 83.259 440.611 87.559C438.633 91.773 435.322 94.74 430.678 96.46C426.034 98.18 419.799 99.04 411.973 99.04C407.845 99.04 403.717 98.868 399.589 98.524C395.547 98.094 391.763 97.578 388.237 96.976C384.711 96.288 381.701 95.6 379.207 94.912C376.713 94.138 374.993 93.493 374.047 92.977L374.434 81.625C379.766 81.625 385.313 81.625 391.075 81.625C396.837 81.625 402.513 81.625 408.103 81.625C411.113 81.539 413.435 81.195 415.069 80.593C416.703 79.905 417.821 78.701 418.423 76.981C419.111 75.175 419.455 72.681 419.455 69.499C419.455 66.231 419.111 63.694 418.423 61.888C417.821 60.082 416.703 58.878 415.069 58.276C413.435 57.588 411.113 57.244 408.103 57.244C399.761 57.244 392.623 57.287 386.689 57.373C380.755 57.459 376.713 57.631 374.563 57.889L372.628 40.99C376.412 40.56 379.981 40.259 383.335 40.087C386.689 39.915 390.344 39.829 394.3 39.829C398.256 39.743 403.072 39.7 408.748 39.7ZM396.88 40.99V130H372.628V40.99H396.88ZM473.86 40.603C478.762 40.603 483.793 40.603 488.953 40.603C494.199 40.603 499.316 40.732 504.304 40.99C509.378 41.162 514.022 41.506 518.236 42.022L517.204 59.308H483.793C481.901 59.308 480.439 59.824 479.407 60.856C478.461 61.802 477.988 63.135 477.988 64.855V106.135C477.988 107.855 478.461 109.231 479.407 110.263C480.439 111.209 481.901 111.682 483.793 111.682H517.204L518.236 128.968C514.022 129.398 509.378 129.742 504.304 130C499.316 130.172 494.199 130.258 488.953 130.258C483.793 130.344 478.762 130.387 473.86 130.387C467.926 130.387 463.067 128.624 459.283 125.098C455.585 121.572 453.736 116.971 453.736 111.295V59.695C453.736 53.933 455.585 49.332 459.283 45.892C463.067 42.366 467.926 40.603 473.86 40.603ZM456.058 75.949H512.431V92.332H456.058V75.949ZM602.198 40.99V57.244H571.625C566.981 57.244 564.53 59.48 564.272 63.952C563.842 68.596 563.412 73.111 562.982 77.497C562.638 81.797 562.165 85.925 561.563 89.881C561.047 93.751 560.445 97.406 559.757 100.846C559.069 104.2 558.252 107.21 557.306 109.876C555.414 115.982 552.834 120.669 549.566 123.937C546.384 127.205 542.643 129.312 538.343 130.258C534.043 131.204 529.313 131.29 524.153 130.516L522.347 111.811C525.271 111.295 527.808 110.564 529.958 109.618C532.194 108.586 533.871 106.479 534.989 103.297C535.677 101.663 536.236 99.857 536.666 97.879C537.182 95.815 537.655 93.579 538.085 91.171C538.515 88.677 538.902 85.968 539.246 83.044C539.676 80.034 540.02 76.809 540.278 73.369C540.622 69.843 540.966 66.016 541.31 61.888C542.256 47.956 549.609 40.99 563.369 40.99H602.198ZM604.133 40.99V130H579.881V40.99H604.133ZM655.251 72.724C663.851 72.724 670.645 73.627 675.633 75.433C680.707 77.153 684.319 80.12 686.469 84.334C688.619 88.548 689.694 94.396 689.694 101.878C689.694 109.446 688.619 115.38 686.469 119.68C684.405 123.894 681.137 126.861 676.665 128.581C672.279 130.215 666.56 131.032 659.508 131.032C653.746 131.032 648.672 130.989 644.286 130.903C639.986 130.903 636.03 130.817 632.418 130.645C628.806 130.473 625.108 130.258 621.324 130L623.13 113.488C625.28 113.574 629.193 113.66 634.869 113.746C640.631 113.832 647.425 113.875 655.251 113.875C658.003 113.875 660.11 113.531 661.572 112.843C663.12 112.155 664.152 110.908 664.668 109.102C665.184 107.21 665.442 104.544 665.442 101.104C665.442 97.664 665.184 94.998 664.668 93.106C664.152 91.214 663.163 89.881 661.701 89.107C660.239 88.333 658.089 87.946 655.251 87.946H623.001V72.724H655.251ZM644.931 40.99V130H620.679V40.99H644.931Z" fill="black"/>
</g>
<defs>
<clipPath id="clip0_2_2">
<rect width="693" height="160" fill="white"/>
</clipPath>
<clipPath id="clip1_2_2">
<rect width="160" height="160" fill="white"/>
</clipPath>
</defs>
</svg>
